<?xml version="1.0" encoding="utf-8"?>
<!-- Generator: Adobe Illustrator 22.0.1, SVG Export Plug-In . SVG Version: 6.00 Build 0)  -->
<svg version="1.1" xmlns="http://www.w3.org/2000/svg" xmlns:xlink="http://www.w3.org/1999/xlink" x="0px" y="0px"
	 viewBox="0 0 176 64" style="enable-background:new 0 0 176 64;" xml:space="preserve">
<style type="text/css">
	.st0{fill:#60A253;}
	.st1{fill:#FFFFFF;}
	.st2{display:none;}
	.st3{display:inline;}
	.st4{display:inline;fill:#FFFFFF;}
</style>
<g id="Layer_1">
	<polygon class="st0" points="170,42 6,42 10.6,32 6,22 170,22 165.4,32 	"/>
	<path class="st0" d="M116,32c0-15.4-12.6-28-28-28S60,16.6,60,32c0,15.4,12.6,28,28,28S116,47.4,116,32z"/>
	<path class="st1" d="M88,6c14.3,0,26,11.7,26,26c0,14.3-11.7,26-26,26c-14.3,0-26-11.7-26-26C62,17.7,73.7,6,88,6 M88,4
		C72.6,4,60,16.6,60,32c0,15.4,12.6,28,28,28s28-12.6,28-28C116,16.6,103.4,4,88,4L88,4z"/>
</g>
<g id="Layer_2" class="st2">
	<g class="st3">
		<g>
			<path class="st1" d="M81.1,29.3c-0.2,0-0.4-0.1-0.6-0.3l-2.4-2.4c-0.3-0.3-0.3-0.9,0-1.2c0.3-0.3,0.9-0.3,1.2,0l2.4,2.4
				c0.3,0.3,0.3,0.9,0,1.2C81.6,29.2,81.3,29.3,81.1,29.3z"/>
		</g>
		<path class="st1" d="M87.9,26.2c-0.5,0-0.9-0.4-0.9-0.9v-3.7c0-0.5,0.4-0.9,0.9-0.9s0.9,0.4,0.9,0.9v3.7
			C88.8,25.9,88.4,26.2,87.9,26.2z"/>
		<path class="st1" d="M88,45.3c-10.7,0-16.1-3.9-16.1-11.6c0-8.9,7.2-16.1,16.1-16.1s16.1,7.2,16.1,16.1
			C104.1,41.4,98.7,45.3,88,45.3z M88,19.3c-7.9,0-14.4,6.5-14.4,14.4c0,6.7,4.6,9.9,14.4,9.9s14.4-3.1,14.4-9.9
			C102.4,25.8,95.9,19.3,88,19.3z"/>
		<g>
			<path class="st1" d="M87.9,41.8c-0.9,0-1.9-0.3-2.6-0.9c-1.8-1.4-2.1-4.1-0.7-5.9c0.7-0.9,1.7-1.4,2.8-1.6
				c1.1-0.1,2.2,0.2,3.1,0.9c0.9,0.7,1.4,1.7,1.6,2.8c0.1,1.1-0.2,2.2-0.9,3.1c-0.7,0.9-1.7,1.4-2.8,1.6
				C88.3,41.8,88.1,41.8,87.9,41.8z M87.9,35.1c-0.1,0-0.2,0-0.3,0C87,35.2,86.4,35.5,86,36c-0.9,1.1-0.7,2.7,0.4,3.5
				c0.5,0.4,1.2,0.6,1.8,0.5c0.7-0.1,1.3-0.4,1.7-0.9c0.4-0.5,0.6-1.2,0.5-1.8S90,36,89.5,35.6C89,35.3,88.5,35.1,87.9,35.1z"/>
			<path class="st1" d="M90,35.8c-0.2,0-0.4-0.1-0.5-0.2c-0.4-0.3-0.4-0.8-0.1-1.2l6.2-7.8c0.3-0.4,0.8-0.4,1.2-0.1
				c0.4,0.3,0.4,0.8,0.1,1.2l-6.2,7.8C90.5,35.7,90.3,35.8,90,35.8z"/>
		</g>
	</g>
</g>
<g id="Layer_3" class="st2">
	<path class="st4" d="M94.1,29.4L94.1,29.4l0.5-0.5l3.1-0.1l0,0l0,0l5.8-5.8l0.2-0.2l-0.2,0l-4.2,0.2l0.2-4.1l0-0.2l-0.2,0.2
		l-5.8,5.8l0,0l0,0l-0.2,3.1l-5.3,5.3l-5.5-5.5l-0.2-3.1l0,0l0,0l-5.8-5.8l-0.2-0.2l0,0.2l0.2,4.1l-4.2-0.2l-0.2,0l0.2,0.2l5.8,5.8
		l0,0l0,0l3.1,0.1l0.6,0.6l4.9,4.9l-0.7,0.7l-7.7,7.7l0.1-2c0-0.5-0.3-0.9-0.8-0.9c0,0-0.1,0-0.1,0c-0.4,0-0.8,0.4-0.8,0.8l-0.3,5.1
		l0,0.1l0.1,0l5.1-0.2c0.5,0,0.8-0.4,0.8-0.9c0-0.5-0.4-0.8-0.9-0.8l-2.1,0.1l8.4-8.4l8.3,8.3l-2.1-0.1c-0.5,0-0.9,0.4-0.9,0.8
		c0,0.5,0.4,0.9,0.8,0.9l5.1,0.2l0.1,0l0-0.1l-0.3-5.1c0-0.4-0.4-0.8-0.8-0.8c0,0-0.1,0-0.1,0c-0.5,0-0.8,0.4-0.8,0.9l0.1,2
		l-7.8-7.8l0,0l0,0l-0.5-0.5L94.1,29.4L94.1,29.4z M92.4,39.5l-4.3-4.3h0L92.4,39.5z M94.4,28.9l0.2-0.2l0,0L94.4,28.9z M97.8,28.6
		l-2.2,0.1L97.8,28.6l5.8-5.8h0L97.8,28.6z M100.7,23L99.2,23l0,0L100.7,23z M93.7,24.5l5.8-5.8l0,0L93.7,24.5l-0.1,1.9L93.7,24.5z
		 M88.1,33.1L88.1,33.1l-2.8-2.8L88.1,33.1L88.1,33.1z M78.2,20.3l-1.7-1.7l0,0L78.2,20.3z M76.6,20l0.1,2.8l-1,0l1,0L76.6,20z
		 M72.5,22.7L72.5,22.7l5.8,5.8l2.2,0.1l-2.2-0.1L72.5,22.7z M82,29.2L82,29.2l-0.6-0.6l0,0L82,29.2L82,29.2l5,5l-0.4,0.4l0.4-0.4
		L82,29.2z M86.2,35C86.2,35,86.2,35,86.2,35C86.2,35,86.2,35,86.2,35l-7.8,7.8l0,0L86.2,35z M77.8,39.7c0.4,0,0.7,0.4,0.7,0.8
		l-0.1,1.8l0.1-1.8C78.5,40.1,78.2,39.8,77.8,39.7c-0.1,0-0.1,0-0.2,0C77.6,39.8,77.6,39.7,77.8,39.7C77.7,39.7,77.7,39.7,77.8,39.7
		z M77.4,39.8c-0.1,0-0.1,0.1-0.1,0.1C77.3,39.8,77.4,39.8,77.4,39.8z M77.2,39.9c0,0-0.1,0.1-0.1,0.2C77.1,40,77.1,40,77.2,39.9z
		 M76.9,40.5c0-0.1,0-0.2,0.1-0.3C77,40.3,77,40.4,76.9,40.5z M82.5,44.8c0-0.1,0-0.2,0-0.2c0-0.1,0-0.2-0.1-0.3
		c0,0.1,0.1,0.2,0.1,0.3C82.6,44.6,82.5,44.7,82.5,44.8z M82.4,44.2c0-0.1-0.1-0.1-0.1-0.2C82.4,44.1,82.4,44.1,82.4,44.2z
		 M81.9,43.9c-0.1,0-0.1,0-0.2,0c0,0,0,0,0,0C81.8,43.8,81.9,43.8,81.9,43.9z M82.2,44c-0.1,0-0.1-0.1-0.2-0.1
		C82.1,43.9,82.2,43.9,82.2,44z M81.3,43.8l-1.9,0.1l0,0L81.3,43.8z M96.6,43.8L96.6,43.8l-2.3-0.1c-0.1,0-0.1,0-0.2,0
		c0.1,0,0.1,0,0.2,0L96.6,43.8z M93.5,44.4c0-0.2,0.1-0.4,0.2-0.5C93.6,44.1,93.5,44.2,93.5,44.4c0,0.2,0.1,0.4,0.2,0.5
		C93.6,44.9,93.5,44.7,93.5,44.4z M99,40c0-0.1-0.1-0.1-0.1-0.2C98.9,39.9,98.9,39.9,99,40z M99.1,40.4c0-0.1,0-0.2-0.1-0.3
		C99.1,40.2,99.1,40.3,99.1,40.4z M98.3,39.6c0,0,0.1,0,0.1,0c0,0,0.1,0,0.1,0C98.5,39.6,98.4,39.6,98.3,39.6
		c-0.3,0-0.6,0.2-0.7,0.5C97.7,39.9,98,39.6,98.3,39.6z M98.8,39.8c0,0-0.1-0.1-0.1-0.1C98.7,39.7,98.7,39.7,98.8,39.8z M97.7,42.7
		L97.7,42.7l-8-8c0,0,0,0,0,0c0,0,0,0,0,0L97.7,42.7z"/>
</g>
<g id="Layer_4">
	<path class="st1" d="M88.5,42.4c-0.2,0-0.3,0-0.5-0.1c-1.8-1-3.2-2.6-3.8-4.6c-0.6-2-0.4-4.1,0.5-6l0.9-1.8
		c0.2-0.4,0.2-0.8,0.1-1.2c-0.1-0.4-0.4-0.7-0.8-0.9c-0.5-0.3-0.7-0.9-0.4-1.4c0.3-0.5,0.9-0.7,1.4-0.4c0.8,0.4,1.5,1.2,1.7,2.1
		c0.3,0.9,0.2,1.9-0.2,2.7l-0.9,1.8c-0.7,1.4-0.9,2.9-0.4,4.4c0.5,1.5,1.5,2.7,2.8,3.4c0.5,0.3,0.7,0.9,0.4,1.4
		C89.2,42.2,88.9,42.4,88.5,42.4z"/>
	<path class="st1" d="M90.5,38.6c-0.2,0-0.3,0-0.5-0.1c-1.7-0.9-2.4-3.1-1.5-4.8l0.9-1.8c0.7-1.4,0.9-2.9,0.4-4.4
		c-0.5-1.5-1.5-2.7-2.8-3.4c-0.5-0.3-0.7-0.9-0.4-1.4c0.3-0.5,0.9-0.7,1.4-0.4c1.8,1,3.2,2.6,3.8,4.6c0.6,2,0.4,4.1-0.5,6l-0.9,1.8
		c-0.4,0.8-0.1,1.7,0.6,2.1c0.5,0.3,0.7,0.9,0.4,1.4C91.2,38.4,90.9,38.6,90.5,38.6z"/>
	<path class="st1" d="M80.3,19.6c1.3,0,2.3,1,2.3,2.3s-1,2.3-2.3,2.3s-2.3-1-2.3-2.3S79.1,19.6,80.3,19.6 M80.3,17.6
		c-2.4,0-4.3,1.9-4.3,4.3s1.9,4.3,4.3,4.3c2.4,0,4.3-1.9,4.3-4.3S82.7,17.6,80.3,17.6L80.3,17.6z"/>
	<path class="st1" d="M95.7,40.2c1.3,0,2.3,1,2.3,2.3s-1,2.3-2.3,2.3s-2.3-1-2.3-2.3S94.4,40.2,95.7,40.2 M95.7,38.2
		c-2.4,0-4.3,1.9-4.3,4.3s1.9,4.3,4.3,4.3s4.3-1.9,4.3-4.3S98,38.2,95.7,38.2L95.7,38.2z"/>
</g>
</svg>
