<?xml version="1.0" encoding="utf-8"?>
<!-- Generator: Adobe Illustrator 22.0.1, SVG Export Plug-In . SVG Version: 6.00 Build 0)  -->
<svg version="1.1" xmlns="http://www.w3.org/2000/svg" xmlns:xlink="http://www.w3.org/1999/xlink" x="0px" y="0px"
	 viewBox="0 0 176 64" style="enable-background:new 0 0 176 64;" xml:space="preserve">
<style type="text/css">
	.st0{fill:#D94148;}
	.st1{fill:#FFFFFF;}
</style>
<g id="Layer_1">
	<polygon class="st0" points="170,42 6,42 10.6,32 6,22 170,22 165.4,32 	"/>
	<g>
		<path class="st0" d="M88,59c-14.9,0-27-12.1-27-27C61,17.1,73.1,5,88,5c14.9,0,27,12.1,27,27C115,46.9,102.9,59,88,59z"/>
		<path class="st1" d="M88,6c14.3,0,26,11.7,26,26c0,14.3-11.7,26-26,26c-14.3,0-26-11.7-26-26C62,17.7,73.7,6,88,6 M88,4
			C72.6,4,60,16.6,60,32c0,15.4,12.6,28,28,28s28-12.6,28-28C116,16.6,103.4,4,88,4L88,4z"/>
	</g>
</g>
<g id="Layer_2">
	<g>
		<g>
			<path class="st1" d="M81.1,29.3c-0.2,0-0.4-0.1-0.6-0.3l-2.4-2.4c-0.3-0.3-0.3-0.9,0-1.2c0.3-0.3,0.9-0.3,1.2,0l2.4,2.4
				c0.3,0.3,0.3,0.9,0,1.2C81.6,29.2,81.3,29.3,81.1,29.3z"/>
		</g>
		<path class="st1" d="M87.9,26.2c-0.5,0-0.9-0.4-0.9-0.9v-3.7c0-0.5,0.4-0.9,0.9-0.9s0.9,0.4,0.9,0.9v3.7
			C88.8,25.9,88.4,26.2,87.9,26.2z"/>
		<path class="st1" d="M88,45.3c-10.7,0-16.1-3.9-16.1-11.6c0-8.9,7.2-16.1,16.1-16.1s16.1,7.2,16.1,16.1
			C104.1,41.4,98.7,45.3,88,45.3z M88,19.3c-7.9,0-14.4,6.5-14.4,14.4c0,6.7,4.6,9.9,14.4,9.9s14.4-3.1,14.4-9.9
			C102.4,25.8,95.9,19.3,88,19.3z"/>
		<g>
			<path class="st1" d="M87.9,41.8c-0.9,0-1.9-0.3-2.6-0.9c-1.8-1.4-2.1-4.1-0.7-5.9c0.7-0.9,1.7-1.4,2.8-1.6
				c1.1-0.1,2.2,0.2,3.1,0.9c0.9,0.7,1.4,1.7,1.6,2.8c0.1,1.1-0.2,2.2-0.9,3.1c-0.7,0.9-1.7,1.4-2.8,1.6
				C88.3,41.8,88.1,41.8,87.9,41.8z M87.9,35.1c-0.1,0-0.2,0-0.3,0C87,35.2,86.4,35.5,86,36c-0.9,1.1-0.7,2.7,0.4,3.5
				c0.5,0.4,1.2,0.6,1.8,0.5c0.7-0.1,1.3-0.4,1.7-0.9c0.4-0.5,0.6-1.2,0.5-1.8S90,36,89.5,35.6C89,35.3,88.5,35.1,87.9,35.1z"/>
			<path class="st1" d="M90,35.8c-0.2,0-0.4-0.1-0.5-0.2c-0.4-0.3-0.4-0.8-0.1-1.2l6.2-7.8c0.3-0.4,0.8-0.4,1.2-0.1
				c0.4,0.3,0.4,0.8,0.1,1.2l-6.2,7.8C90.5,35.7,90.3,35.8,90,35.8z"/>
		</g>
	</g>
</g>
</svg>
