<svg xmlns="http://www.w3.org/2000/svg" xmlns:xlink="http://www.w3.org/1999/xlink" viewBox="0 0 45 25.6"><defs><style>.cls-1{fill:none;clip-rule:evenodd;}.cls-2{clip-path:url(#clip-path);}.cls-3{fill:#ff983a;}.cls-4{clip-path:url(#clip-path-2);}.cls-5{clip-path:url(#clip-path-3);}.cls-6{clip-path:url(#clip-path-4);}</style><clipPath id="clip-path"><path class="cls-1" d="M16.27,9.86,9.72,18.19l5.08-4s.17,1.52.17,1.54,3-3.54,3-3.54Z"/></clipPath><clipPath id="clip-path-2"><polygon class="cls-1" points="23.72 13 18.84 16.15 23.66 14.46 24.97 14.75 23.72 13"/></clipPath><clipPath id="clip-path-3"><path class="cls-1" d="M16.23,7.71l3.68,4.91.71.94,1-.66,2.34-1.56,6,8H7.49ZM5,20.6H32.44L24.23,9.65,20.9,11.87,16.23,5.63Z"/></clipPath><clipPath id="clip-path-4"><polygon class="cls-1" points="35.5 13 31 5 40 5 35.5 13"/></clipPath></defs><title>Гора</title><g id="Слой_2" data-name="Слой 2"><g id="Слой_1-2" data-name="Слой 1"><g class="cls-2"><rect class="cls-3" x="4.72" y="4.86" width="18.25" height="18.33"/></g><g class="cls-4"><rect class="cls-3" x="13.84" y="8" width="16.12" height="13.16"/></g><g class="cls-5"><rect class="cls-3" y="0.63" width="37.44" height="24.97"/></g><g class="cls-6"><rect class="cls-3" x="26" width="19" height="18"/></g></g></g></svg>