<?xml version="1.0" encoding="utf-8"?>
<!-- Generator: Adobe Illustrator 22.0.1, SVG Export Plug-In . SVG Version: 6.00 Build 0)  -->
<svg version="1.1" xmlns="http://www.w3.org/2000/svg" xmlns:xlink="http://www.w3.org/1999/xlink" x="0px" y="0px"
	 viewBox="0 0 64 64" style="enable-background:new 0 0 64 64;" xml:space="preserve">
<style type="text/css">
	.st0{fill:#929292;}
	.st1{fill:#FFFFFF;}
	.st2{display:none;}
	.st3{display:inline;}
	.st4{display:inline;fill:#FFFFFF;}
	.st5{fill:#FFD400;}
	.st6{fill:#E40072;}
</style>
<g id="Layer_1">
	<path class="st0" d="M60,32C60,16.6,47.4,4,32,4S4,16.6,4,32c0,15.4,12.6,28,28,28S60,47.4,60,32z"/>
	<path class="st1" d="M32,6c14.3,0,26,11.7,26,26c0,14.3-11.7,26-26,26C17.7,58,6,46.3,6,32C6,17.7,17.7,6,32,6 M32,4
		C16.6,4,4,16.6,4,32c0,15.4,12.6,28,28,28s28-12.6,28-28C60,16.6,47.4,4,32,4L32,4z"/>
</g>
<g id="Layer_2" class="st2">
	<g class="st3">
		<g>
			<path class="st1" d="M25.1,29.3c-0.2,0-0.4-0.1-0.6-0.3l-2.4-2.4c-0.3-0.3-0.3-0.9,0-1.2s0.9-0.3,1.2,0l2.4,2.4
				c0.3,0.3,0.3,0.9,0,1.2C25.6,29.2,25.3,29.3,25.1,29.3z"/>
		</g>
		<path class="st1" d="M31.9,26.2c-0.5,0-0.9-0.4-0.9-0.9v-3.7c0-0.5,0.4-0.9,0.9-0.9s0.9,0.4,0.9,0.9v3.7
			C32.8,25.9,32.4,26.2,31.9,26.2z"/>
		<path class="st1" d="M32,45.3c-10.7,0-16.1-3.9-16.1-11.6c0-8.9,7.2-16.1,16.1-16.1s16.1,7.2,16.1,16.1
			C48.1,41.4,42.7,45.3,32,45.3z M32,19.3c-7.9,0-14.4,6.5-14.4,14.4c0,6.7,4.6,9.9,14.4,9.9s14.4-3.1,14.4-9.9
			C46.4,25.8,39.9,19.3,32,19.3z"/>
		<g>
			<path class="st1" d="M31.9,41.8c-0.9,0-1.9-0.3-2.6-0.9c-1.8-1.4-2.1-4.1-0.7-5.9c0.7-0.9,1.7-1.4,2.8-1.6
				c1.1-0.1,2.2,0.2,3.1,0.9c0.9,0.7,1.4,1.7,1.6,2.8c0.1,1.1-0.2,2.2-0.9,3.1c-0.7,0.9-1.7,1.4-2.8,1.6
				C32.3,41.8,32.1,41.8,31.9,41.8z M31.9,35.1c-0.1,0-0.2,0-0.3,0C31,35.2,30.4,35.5,30,36c-0.9,1.1-0.7,2.7,0.4,3.5
				c0.5,0.4,1.2,0.6,1.8,0.5c0.7-0.1,1.3-0.4,1.7-0.9c0.4-0.5,0.6-1.2,0.5-1.8c-0.1-0.7-0.4-1.3-0.9-1.7
				C33,35.3,32.5,35.1,31.9,35.1z"/>
			<path class="st1" d="M34,35.8c-0.2,0-0.4-0.1-0.5-0.2c-0.4-0.3-0.4-0.8-0.1-1.2l6.2-7.8c0.3-0.4,0.8-0.4,1.2-0.1
				c0.4,0.3,0.4,0.8,0.1,1.2l-6.2,7.8C34.5,35.7,34.3,35.8,34,35.8z"/>
		</g>
	</g>
</g>
<g id="Layer_3">
	<path class="st1" d="M38.1,29.4L38.1,29.4l0.5-0.5l3.1-0.1l0,0l0,0l5.8-5.8l0.2-0.2l-0.2,0l-4.2,0.2l0.2-4.1l0-0.2l-0.2,0.2
		l-5.8,5.8l0,0l0,0l-0.2,3.1l-5.3,5.3l-5.5-5.5l-0.2-3.1l0,0l0,0l-5.8-5.8l-0.2-0.2l0,0.2l0.2,4.1l-4.2-0.2l-0.2,0l0.2,0.2l5.8,5.8
		l0,0l0,0l3.1,0.1l0.6,0.6l4.9,4.9l-0.7,0.7l-7.7,7.7l0.1-2c0-0.5-0.3-0.9-0.8-0.9c0,0-0.1,0-0.1,0c-0.4,0-0.8,0.4-0.8,0.8l-0.3,5.1
		l0,0.1l0.1,0l5.1-0.2c0.5,0,0.8-0.4,0.8-0.9c0-0.5-0.4-0.8-0.9-0.8l-2.1,0.1l8.4-8.4l8.3,8.3l-2.1-0.1c-0.5,0-0.9,0.4-0.9,0.8
		c0,0.5,0.4,0.9,0.8,0.9l5.1,0.2l0.1,0l0-0.1l-0.3-5.1c0-0.4-0.4-0.8-0.8-0.8c0,0-0.1,0-0.1,0c-0.5,0-0.8,0.4-0.8,0.9l0.1,2
		l-7.8-7.8l0,0l0,0l-0.5-0.5L38.1,29.4L38.1,29.4z M36.4,39.5l-4.3-4.3h0L36.4,39.5z M38.4,28.9l0.2-0.2l0,0L38.4,28.9z M41.8,28.6
		l-2.2,0.1L41.8,28.6l5.8-5.8h0L41.8,28.6z M44.7,23L43.2,23l0,0L44.7,23z M37.7,24.5l5.8-5.8l0,0L37.7,24.5l-0.1,1.9L37.7,24.5z
		 M32.1,33.1L32.1,33.1l-2.8-2.8L32.1,33.1L32.1,33.1z M22.2,20.3l-1.7-1.7l0,0L22.2,20.3z M20.6,20l0.1,2.8l-1,0l1,0L20.6,20z
		 M16.5,22.7L16.5,22.7l5.8,5.8l2.2,0.1l-2.2-0.1L16.5,22.7z M26,29.2L26,29.2l-0.6-0.6l0,0L26,29.2L26,29.2l5,5l-0.4,0.4l0.4-0.4
		L26,29.2z M30.2,35C30.2,35,30.2,35,30.2,35C30.2,35,30.2,35,30.2,35l-7.8,7.8l0,0L30.2,35z M21.8,39.7c0.4,0,0.7,0.4,0.7,0.8
		l-0.1,1.8l0.1-1.8C22.5,40.1,22.2,39.8,21.8,39.7c-0.1,0-0.1,0-0.2,0C21.6,39.8,21.6,39.7,21.8,39.7C21.7,39.7,21.7,39.7,21.8,39.7
		z M21.4,39.8c-0.1,0-0.1,0.1-0.1,0.1C21.3,39.8,21.4,39.8,21.4,39.8z M21.2,39.9c0,0-0.1,0.1-0.1,0.2C21.1,40,21.1,40,21.2,39.9z
		 M20.9,40.5c0-0.1,0-0.2,0.1-0.3C21,40.3,21,40.4,20.9,40.5z M26.5,44.8c0-0.1,0-0.2,0-0.2c0-0.1,0-0.2-0.1-0.3
		c0,0.1,0.1,0.2,0.1,0.3C26.6,44.6,26.5,44.7,26.5,44.8z M26.4,44.2c0-0.1-0.1-0.1-0.1-0.2C26.4,44.1,26.4,44.1,26.4,44.2z
		 M25.9,43.9c-0.1,0-0.1,0-0.2,0c0,0,0,0,0,0C25.8,43.8,25.9,43.8,25.9,43.9z M26.2,44c-0.1,0-0.1-0.1-0.2-0.1
		C26.1,43.9,26.2,43.9,26.2,44z M25.3,43.8l-1.9,0.1l0,0L25.3,43.8z M40.6,43.8L40.6,43.8l-2.3-0.1c-0.1,0-0.1,0-0.2,0
		c0.1,0,0.1,0,0.2,0L40.6,43.8z M37.5,44.4c0-0.2,0.1-0.4,0.2-0.5C37.6,44.1,37.5,44.2,37.5,44.4c0,0.2,0.1,0.4,0.2,0.5
		C37.6,44.9,37.5,44.7,37.5,44.4z M43,40c0-0.1-0.1-0.1-0.1-0.2C42.9,39.9,42.9,39.9,43,40z M43.1,40.4c0-0.1,0-0.2-0.1-0.3
		C43.1,40.2,43.1,40.3,43.1,40.4z M42.3,39.6c0,0,0.1,0,0.1,0c0,0,0.1,0,0.1,0C42.5,39.6,42.4,39.6,42.3,39.6
		c-0.3,0-0.6,0.2-0.7,0.5C41.7,39.9,42,39.6,42.3,39.6z M42.8,39.8c0,0-0.1-0.1-0.1-0.1C42.7,39.7,42.7,39.7,42.8,39.8z M41.7,42.7
		L41.7,42.7l-8-8c0,0,0,0,0,0c0,0,0,0,0,0L41.7,42.7z"/>
</g>
<g id="Layer_4" class="st2">
	<path class="st4" d="M32.5,42.4c-0.2,0-0.3,0-0.5-0.1c-1.8-1-3.2-2.6-3.8-4.6c-0.6-2-0.4-4.1,0.5-6l0.9-1.8
		c0.2-0.4,0.2-0.8,0.1-1.2c-0.1-0.4-0.4-0.7-0.8-0.9c-0.5-0.3-0.7-0.9-0.4-1.4c0.3-0.5,0.9-0.7,1.4-0.4c0.8,0.4,1.5,1.2,1.7,2.1
		c0.3,0.9,0.2,1.9-0.2,2.7l-0.9,1.8c-0.7,1.4-0.9,2.9-0.4,4.4c0.5,1.5,1.5,2.7,2.8,3.4c0.5,0.3,0.7,0.9,0.4,1.4
		C33.2,42.2,32.9,42.4,32.5,42.4z"/>
	<path class="st4" d="M34.5,38.6c-0.2,0-0.3,0-0.5-0.1c-1.7-0.9-2.4-3.1-1.5-4.8l0.9-1.8c0.7-1.4,0.9-2.9,0.4-4.4
		c-0.5-1.5-1.5-2.7-2.8-3.4c-0.5-0.3-0.7-0.9-0.4-1.4c0.3-0.5,0.9-0.7,1.4-0.4c1.8,1,3.2,2.6,3.8,4.6c0.6,2,0.4,4.1-0.5,6l-0.9,1.8
		c-0.4,0.8-0.1,1.7,0.6,2.1c0.5,0.3,0.7,0.9,0.4,1.4C35.2,38.4,34.9,38.6,34.5,38.6z"/>
	<path class="st4" d="M24.3,19.6c1.3,0,2.3,1,2.3,2.3s-1,2.3-2.3,2.3s-2.3-1-2.3-2.3S23.1,19.6,24.3,19.6 M24.3,17.6
		c-2.4,0-4.3,1.9-4.3,4.3s1.9,4.3,4.3,4.3c2.4,0,4.3-1.9,4.3-4.3S26.7,17.6,24.3,17.6L24.3,17.6z"/>
	<path class="st4" d="M39.7,40.2c1.3,0,2.3,1,2.3,2.3s-1,2.3-2.3,2.3s-2.3-1-2.3-2.3S38.4,40.2,39.7,40.2 M39.7,38.2
		c-2.4,0-4.3,1.9-4.3,4.3s1.9,4.3,4.3,4.3s4.3-1.9,4.3-4.3S42,38.2,39.7,38.2L39.7,38.2z"/>
</g>
<g id="Layer_5" class="st2">
	<g class="st3">
		<path class="st1" d="M42.9,43.4c-0.3,0-0.6-0.2-0.8-0.5l-8.3-17l-5.3,10.6C28.3,36.8,28,37,27.7,37c-0.3,0-0.6-0.2-0.7-0.4
			l-3.3-5.8l-6.6,12.1c-0.2,0.4-0.7,0.6-1.1,0.3c-0.4-0.2-0.6-0.7-0.3-1.1l7.3-13.5c0.1-0.3,0.4-0.4,0.7-0.4
			c0.3,0.1,0.6,0.2,0.7,0.4l3.2,5.8L33,23.7c0.1-0.3,0.4-0.5,0.7-0.5c0,0,0,0,0,0c0.3,0,0.6,0.2,0.7,0.5l9.1,18.6
			c0.2,0.4,0,0.9-0.4,1.1C43.1,43.4,43,43.4,42.9,43.4z"/>
		<g>
			<g>
				<g>
					<g>
						<path class="st1" d="M42.9,33.4c-0.2,0-0.4-0.1-0.6-0.3c-0.3-0.3-0.3-0.9,0-1.2l4.1-3.8c0.3-0.3,0.9-0.3,1.2,0
							c0.3,0.3,0.3,0.9,0,1.2l-4.1,3.8C43.3,33.3,43.1,33.4,42.9,33.4z"/>
					</g>
				</g>
			</g>
		</g>
		<path class="st1" d="M42.9,33.4c-0.5,0-0.8-0.4-0.8-0.8V19.7c0-0.5,0.4-0.8,0.8-0.8s0.8,0.4,0.8,0.8v12.8
			C43.7,33,43.3,33.4,42.9,33.4z"/>
		<rect x="16.3" y="41.6" class="st1" width="26.6" height="1.7"/>
	</g>
</g>
<g id="Layer_6" class="st2">
	<g class="st3">
		<path class="st1" d="M32,16.4c7,0,13.1,3.3,13.1,3.3s0,6.9,0,9.6c0,5.9-1.6,10.8-5.6,14.5c-2.2,2.1-7.5,5.5-7.5,5.5
			s-5.3-3.4-7.5-5.5c-3.9-3.7-5.6-8.6-5.6-14.5c0-2.7,0-9.6,0-9.6S25,16.4,32,16.4"/>
		<path class="st5" d="M25.3,34L37,25.4l-11-6.4c-3.2,0.9-5.4,2.1-5.4,2.1s0,6.1,0,8.5c0,4.5,1,8.3,3.5,11.4L25.3,34L25.3,34z"/>
		<path class="st6" d="M43.4,21.1c0,0-5.3-2.9-11.4-2.9c-1.5,0-2.9,0.2-4.2,0.4l13.5,6L31,34.9l5.1,9.7c0.9-0.7,1.9-1.4,2.5-2
			c3.4-3.3,4.9-7.6,4.9-12.9C43.4,27.2,43.4,21.1,43.4,21.1"/>
	</g>
</g>
</svg>
