<?xml version="1.0" encoding="utf-8"?>
<!-- Generator: Adobe Illustrator 22.0.1, SVG Export Plug-In . SVG Version: 6.00 Build 0)  -->
<svg version="1.1" xmlns="http://www.w3.org/2000/svg" xmlns:xlink="http://www.w3.org/1999/xlink" x="0px" y="0px"
	 viewBox="0 0 100 52" style="enable-background:new 0 0 100 52;" xml:space="preserve">
<style type="text/css">
	.st0{display:none;}
	.st1{display:inline;}
	.st2{fill:#5C6ADA;}
	.st3{fill:#FFFFFF;}
	.st4{fill:#E76538;}
	.st5{fill:#FF962A;}
	.st6{fill:#60A153;}
	.st7{display:inline;fill:#32A099;}
	.st8{fill:#32A099;}
	.st9{fill:#2B98CB;}
	.st10{fill:#8C5BDA;}
	.st11{fill:#ADADAD;}
	.st12{display:inline;fill:#ADADAD;}
</style>
<g id="Layer_1" class="st0">
	<g class="st1">
		<polygon class="st2" points="87,33.9 13,33.9 16.5,26 13,18.1 87,18.1 83.5,26 		"/>
		<g>
			<g>
				<path class="st2" d="M73.1,26C73.1,13.3,62.7,2.9,50,2.9S26.9,13.3,26.9,26c0,12.7,10.3,23.1,23.1,23.1S73.1,38.7,73.1,26z"/>
				<path class="st3" d="M50,49.7c-13.1,0-23.7-10.6-23.7-23.7C26.3,12.9,36.9,2.3,50,2.3c13.1,0,23.7,10.6,23.7,23.7
					C73.7,39.1,63.1,49.7,50,49.7z M50,3.6C37.6,3.6,27.6,13.6,27.6,26c0,12.4,10.1,22.4,22.4,22.4S72.4,38.4,72.4,26
					C72.4,13.6,62.4,3.6,50,3.6z"/>
			</g>
			<g>
				<path class="st3" d="M50,37.4c-5.9,0-10.8-4.8-10.8-10.8S44.1,15.8,50,15.8s10.8,4.8,10.8,10.8S55.9,37.4,50,37.4z M50,17.2
					c-5.2,0-9.4,4.2-9.4,9.4S44.8,36,50,36s9.4-4.2,9.4-9.4S55.2,17.2,50,17.2z"/>
				<path class="st3" d="M52,14.7h-4c-0.4,0-0.7-0.3-0.7-0.7c0-0.4,0.3-0.7,0.7-0.7h4c0.4,0,0.7,0.3,0.7,0.7
					C52.7,14.4,52.4,14.7,52,14.7z"/>
				<path class="st3" d="M50,27.3c-0.4,0-0.7-0.3-0.7-0.7v-6.9c0-0.4,0.3-0.7,0.7-0.7c0.4,0,0.7,0.3,0.7,0.7v6.9
					C50.7,27,50.4,27.3,50,27.3z"/>
				<path class="st3" d="M57.1,20.1c-0.2,0-0.3-0.1-0.5-0.2c-0.3-0.3-0.3-0.7,0-1l1.8-1.8c0.3-0.3,0.7-0.3,1,0c0.3,0.3,0.3,0.7,0,1
					l-1.8,1.8C57.5,20.1,57.3,20.1,57.1,20.1z"/>
			</g>
		</g>
	</g>
</g>
<g id="Layer_3" class="st0">
	<g class="st1">
		<polygon class="st4" points="87,33.9 13,33.9 16.5,26 13,18.1 87,18.1 83.5,26 		"/>
		<g>
			<path class="st4" d="M73.1,26C73.1,13.3,62.7,2.9,50,2.9S26.9,13.3,26.9,26c0,12.7,10.3,23.1,23.1,23.1S73.1,38.7,73.1,26z"/>
			<path class="st3" d="M50,49.7c-13.1,0-23.7-10.6-23.7-23.7C26.3,12.9,36.9,2.3,50,2.3c13.1,0,23.7,10.6,23.7,23.7
				C73.7,39.1,63.1,49.7,50,49.7z M50,3.6C37.6,3.6,27.6,13.6,27.6,26c0,12.4,10.1,22.4,22.4,22.4S72.4,38.4,72.4,26
				C72.4,13.6,62.4,3.6,50,3.6z"/>
		</g>
		<g>
			<g>
				<path class="st3" d="M44.4,24.2c-0.2,0-0.3-0.1-0.5-0.2l-1.9-1.9c-0.3-0.3-0.3-0.7,0-0.9c0.3-0.3,0.7-0.3,0.9,0l1.9,1.9
					c0.3,0.3,0.3,0.7,0,0.9C44.7,24.1,44.6,24.2,44.4,24.2z"/>
				<path class="st3" d="M55.1,24.2c-0.2,0-0.3-0.1-0.5-0.2c-0.3-0.3-0.3-0.7,0-0.9l1.9-1.9c0.3-0.3,0.7-0.3,0.9,0
					c0.3,0.3,0.3,0.7,0,0.9L55.6,24C55.5,24.1,55.3,24.2,55.1,24.2z"/>
			</g>
			<path class="st3" d="M49.8,36.6c-8.3,0-12.6-3-12.6-9c0-6.9,5.6-12.6,12.6-12.6c6.9,0,12.6,5.6,12.6,12.6
				C62.4,33.6,58.1,36.6,49.8,36.6z M49.8,16.4c-6.2,0-11.2,5-11.2,11.2c0,5.3,3.6,7.7,11.2,7.7S61,32.9,61,27.6
				C61,21.4,56,16.4,49.8,16.4z"/>
			<path class="st3" d="M49.8,33.9c-1.8,0-3.3-1.5-3.3-3.3s1.5-3.3,3.3-3.3s3.3,1.5,3.3,3.3S51.6,33.9,49.8,33.9z M49.8,28.6
				c-1.1,0-2,0.9-2,2s0.9,2,2,2c1.1,0,2-0.9,2-2S50.9,28.6,49.8,28.6z"/>
			<path class="st3" d="M49.8,28.6c-0.4,0-0.7-0.3-0.7-0.7v-7.8c0-0.4,0.3-0.7,0.7-0.7c0.4,0,0.7,0.3,0.7,0.7V28
				C50.5,28.3,50.2,28.6,49.8,28.6z"/>
		</g>
	</g>
</g>
<g id="Layer_2" class="st0">
	<g class="st1">
		<polygon class="st5" points="87,33.9 13,33.9 16.5,26 13,18.1 87,18.1 83.5,26 		"/>
		<g>
			<path class="st5" d="M73.1,26C73.1,13.3,62.7,2.9,50,2.9S26.9,13.3,26.9,26c0,12.7,10.3,23.1,23.1,23.1S73.1,38.7,73.1,26z"/>
			<path class="st3" d="M50,49.7c-13.1,0-23.7-10.6-23.7-23.7C26.3,12.9,36.9,2.3,50,2.3c13.1,0,23.7,10.6,23.7,23.7
				C73.7,39.1,63.1,49.7,50,49.7z M50,3.6C37.6,3.6,27.6,13.6,27.6,26c0,12.4,10.1,22.4,22.4,22.4S72.4,38.4,72.4,26
				C72.4,13.6,62.4,3.6,50,3.6z"/>
		</g>
		<path class="st3" d="M54.6,24L54.6,24l0.4-0.4l2.4-0.1l0,0l0,0l4.4-4.4l0.1-0.1l-0.2,0l-3.2,0.1l0.2-3.1l0-0.2l-0.1,0.1l-4.4,4.4
			l0,0l0,0l-0.1,2.3l-4,4l-4.2-4.2l-0.1-2.3l0,0l0,0l-4.4-4.4l-0.1-0.1l0,0.2l0.2,3.1l-3.2-0.1l-0.2,0l0.1,0.1l4.4,4.4l0,0l0,0
			l2.4,0.1l0.4,0.4l3.7,3.7l-0.6,0.6L42.8,34l0.1-1.5c0-0.4-0.3-0.7-0.6-0.7c0,0,0,0-0.1,0c-0.3,0-0.6,0.3-0.6,0.6l-0.2,3.8l0,0.1
			l0.1,0l3.9-0.1c0.4,0,0.6-0.3,0.6-0.7c0-0.3-0.3-0.6-0.7-0.6l-1.6,0.1l6.4-6.4l6.3,6.3l-1.6-0.1c-0.4,0-0.7,0.3-0.7,0.6
			c0,0.4,0.3,0.7,0.6,0.7l3.9,0.1l0.1,0l0-0.1l-0.2-3.8c0-0.3-0.3-0.6-0.6-0.6c0,0-0.1,0-0.1,0c-0.4,0-0.6,0.3-0.6,0.7l0.1,1.5
			L51.3,28l0,0l0,0L51,27.6L54.6,24L54.6,24z M53.3,31.7l-3.2-3.2h0L53.3,31.7z M54.9,23.6l0.1-0.1l0,0L54.9,23.6z M57.4,23.4
			l-1.7,0.1L57.4,23.4l4.4-4.4h0L57.4,23.4z M59.7,19.1l-1.1,0l0,0L59.7,19.1z M54.3,20.3l4.4-4.4l0,0L54.3,20.3l-0.1,1.5L54.3,20.3
			z M50.1,26.8L50.1,26.8l-2.1-2.1L50.1,26.8L50.1,26.8z M42.6,17.1l-1.3-1.3l0,0L42.6,17.1z M41.4,16.9l0.1,2.1l-0.7,0l0.7,0
			L41.4,16.9z M38.2,18.9L38.2,18.9l4.4,4.4l1.7,0.1l-1.7-0.1L38.2,18.9z M45.5,23.8L45.5,23.8L45,23.4l0,0L45.5,23.8L45.5,23.8
			l3.8,3.8l-0.3,0.3l0.3-0.3L45.5,23.8z M48.6,28.2C48.6,28.2,48.6,28.2,48.6,28.2C48.6,28.2,48.6,28.2,48.6,28.2l-5.9,5.9l0,0
			L48.6,28.2z M42.2,31.9c0.3,0,0.6,0.3,0.6,0.6l-0.1,1.4l0.1-1.4C42.8,32.2,42.6,31.9,42.2,31.9c-0.1,0-0.1,0-0.2,0
			C42.1,31.9,42.1,31.9,42.2,31.9C42.2,31.9,42.2,31.9,42.2,31.9z M42,31.9c0,0-0.1,0-0.1,0.1C41.9,31.9,41.9,31.9,42,31.9z
			 M41.8,32c0,0-0.1,0.1-0.1,0.1C41.7,32.1,41.8,32,41.8,32z M41.6,32.4c0-0.1,0-0.1,0.1-0.2C41.6,32.3,41.6,32.3,41.6,32.4z
			 M45.8,35.7c0-0.1,0-0.1,0-0.2c0-0.1,0-0.2-0.1-0.2c0,0.1,0.1,0.1,0.1,0.2C45.9,35.6,45.9,35.6,45.8,35.7z M45.8,35.2
			c0,0-0.1-0.1-0.1-0.1C45.7,35.1,45.8,35.2,45.8,35.2z M45.4,35c0,0-0.1,0-0.1,0c0,0,0,0,0,0C45.3,35,45.4,35,45.4,35z M45.6,35.1
			c0,0-0.1-0.1-0.1-0.1C45.5,35,45.6,35,45.6,35.1z M44.9,35L43.5,35l0,0L44.9,35z M56.5,34.9L56.5,34.9l-1.8-0.1
			c-0.1,0-0.1,0-0.2,0c0.1,0,0.1,0,0.2,0L56.5,34.9z M54.2,35.4c0-0.2,0.1-0.3,0.2-0.4C54.2,35.1,54.2,35.3,54.2,35.4
			c0,0.2,0.1,0.3,0.2,0.4C54.2,35.7,54.2,35.6,54.2,35.4z M58.3,32c0,0-0.1-0.1-0.1-0.1C58.3,32,58.3,32,58.3,32z M58.4,32.3
			c0-0.1,0-0.1-0.1-0.2C58.4,32.2,58.4,32.3,58.4,32.3z M57.8,31.8C57.8,31.8,57.9,31.8,57.8,31.8c0.1,0,0.1,0,0.2,0
			C57.9,31.8,57.9,31.8,57.8,31.8c-0.2,0-0.4,0.2-0.5,0.4C57.4,31.9,57.6,31.8,57.8,31.8z M58.2,31.9c0,0-0.1-0.1-0.1-0.1
			C58.1,31.8,58.1,31.9,58.2,31.9z M57.3,34.1L57.3,34.1L51.3,28c0,0,0,0,0,0c0,0,0,0,0,0L57.3,34.1z"/>
	</g>
</g>
<g id="Layer_4" class="st0">
	<g class="st1">
		<polygon class="st6" points="87,33.9 13,33.9 16.5,26 13,18.1 87,18.1 83.5,26 		"/>
		<g>
			<g>
				<path class="st6" d="M73.1,26C73.1,13.3,62.7,2.9,50,2.9S26.9,13.3,26.9,26c0,12.7,10.3,23.1,23.1,23.1S73.1,38.7,73.1,26z"/>
				<path class="st3" d="M50,49.7c-13.1,0-23.7-10.6-23.7-23.7C26.3,12.9,36.9,2.3,50,2.3c13.1,0,23.7,10.6,23.7,23.7
					C73.7,39.1,63.1,49.7,50,49.7z M50,3.6C37.6,3.6,27.6,13.6,27.6,26c0,12.4,10.1,22.4,22.4,22.4S72.4,38.4,72.4,26
					C72.4,13.6,62.4,3.6,50,3.6z"/>
			</g>
			<g>
				<path class="st3" d="M51.8,34.6c-0.1,0-0.2,0-0.3-0.1c-1.6-0.7-2.9-2.1-3.5-3.7c-0.6-1.7-0.6-3.5,0.1-5.1l0.5-1
					c0.3-0.8,0.4-1.6,0.1-2.4c-0.3-0.8-0.9-1.4-1.7-1.8c-0.3-0.1-0.5-0.5-0.3-0.8c0.1-0.3,0.5-0.5,0.8-0.3c1.1,0.5,1.9,1.4,2.3,2.5
					c0.4,1.1,0.4,2.3-0.1,3.4l-0.5,1c-0.6,1.3-0.6,2.8-0.1,4.2c0.5,1.4,1.5,2.4,2.9,3c0.3,0.1,0.5,0.5,0.3,0.8
					C52.3,34.5,52,34.6,51.8,34.6z"/>
				<path class="st3" d="M52.7,32.5c-0.1,0-0.2,0-0.3-0.1c-1.1-0.5-1.9-1.4-2.3-2.5c-0.4-1.1-0.4-2.3,0.1-3.4l0.5-1
					c0.6-1.3,0.6-2.8,0.1-4.2c-0.5-1.4-1.5-2.4-2.9-3c-0.3-0.1-0.5-0.5-0.3-0.8c0.1-0.3,0.5-0.5,0.8-0.3c1.6,0.7,2.9,2.1,3.5,3.7
					c0.6,1.7,0.6,3.5-0.1,5.1l-0.5,1c-0.3,0.8-0.4,1.6-0.1,2.4c0.3,0.8,0.9,1.4,1.7,1.8c0.3,0.1,0.5,0.5,0.3,0.8
					C53.2,32.4,53,32.5,52.7,32.5z"/>
				<path class="st3" d="M57,33.1c0.9,0,1.7,0.5,2,1.4c0.4,1.1-0.1,2.3-1.2,2.7c-0.2,0.1-0.5,0.1-0.8,0.1c-0.9,0-1.7-0.5-2-1.4
					c-0.4-1.1,0.1-2.3,1.2-2.7C56.5,33.2,56.8,33.1,57,33.1 M57,31.9c-0.4,0-0.8,0.1-1.2,0.2c-1.7,0.7-2.6,2.6-1.9,4.4
					c0.5,1.3,1.8,2.2,3.2,2.2c0.4,0,0.8-0.1,1.2-0.2c1.7-0.7,2.6-2.6,1.9-4.4C59.7,32.7,58.4,31.9,57,31.9L57,31.9z"/>
				<path class="st3" d="M43,14.6c0.9,0,1.7,0.5,2,1.4c0.4,1.1-0.1,2.3-1.2,2.7c-0.2,0.1-0.5,0.1-0.8,0.1c-0.9,0-1.7-0.5-2-1.4
					c-0.4-1.1,0.1-2.3,1.2-2.7C42.5,14.7,42.7,14.6,43,14.6 M43,13.4c-0.4,0-0.8,0.1-1.2,0.2c-1.7,0.7-2.6,2.6-1.9,4.4
					c0.5,1.3,1.8,2.2,3.2,2.2c0.4,0,0.8-0.1,1.2-0.2c1.7-0.7,2.6-2.6,1.9-4.4C45.6,14.2,44.3,13.4,43,13.4L43,13.4z"/>
			</g>
		</g>
	</g>
</g>
<g id="Layer_5" class="st0">
	<polygon class="st7" points="87,33.9 13,33.9 16.5,26 13,18.1 87,18.1 83.5,26 	"/>
	<g class="st1">
		<path class="st8" d="M73.1,26C73.1,13.3,62.7,2.9,50,2.9S26.9,13.3,26.9,26c0,12.7,10.3,23.1,23.1,23.1S73.1,38.7,73.1,26z"/>
		<path class="st3" d="M50,49.7c-13.1,0-23.7-10.6-23.7-23.7C26.3,12.9,36.9,2.3,50,2.3c13.1,0,23.7,10.6,23.7,23.7
			C73.7,39.1,63.1,49.7,50,49.7z M50,3.6C37.6,3.6,27.6,13.6,27.6,26c0,12.4,10.1,22.4,22.4,22.4S72.4,38.4,72.4,26
			C72.4,13.6,62.4,3.6,50,3.6z"/>
	</g>
	<g class="st1">
		<path class="st3" d="M58.9,34.5c-0.2,0-0.5-0.1-0.6-0.4l-6.6-13.5L47.4,29c-0.1,0.2-0.3,0.4-0.6,0.4c-0.3,0-0.5-0.1-0.6-0.3
			l-2.6-4.6L38.4,34c-0.2,0.3-0.6,0.4-0.9,0.3c-0.3-0.2-0.4-0.6-0.3-0.9l5.8-10.6c0.1-0.2,0.3-0.3,0.6-0.3c0.3,0,0.5,0.1,0.6,0.3
			l2.6,4.6l4.3-8.4c0.1-0.2,0.3-0.4,0.6-0.4c0,0,0,0,0,0c0.3,0,0.5,0.1,0.6,0.4l7.2,14.7c0.2,0.3,0,0.7-0.3,0.9
			C59,34.4,58.9,34.5,58.9,34.5z"/>
		<g>
			<g>
				<g>
					<g>
						<path class="st3" d="M58.9,26.5c-0.2,0-0.4-0.1-0.5-0.2c-0.2-0.3-0.2-0.7,0-0.9l3.3-3c0.3-0.2,0.7-0.2,0.9,0
							c0.2,0.3,0.2,0.7,0,0.9l-3.3,3C59.2,26.4,59,26.5,58.9,26.5z"/>
					</g>
				</g>
			</g>
		</g>
		<path class="st3" d="M58.9,26.5c-0.4,0-0.7-0.3-0.7-0.7V15.7c0-0.4,0.3-0.7,0.7-0.7s0.7,0.3,0.7,0.7v10.2
			C59.5,26.2,59.2,26.5,58.9,26.5z"/>
		<rect x="37.9" y="33" class="st3" width="21" height="1.3"/>
	</g>
</g>
<g id="Layer_6" class="st0">
	<g class="st1">
		<polygon class="st9" points="87,33.9 13,33.9 16.5,26 13,18.1 87,18.1 83.5,26 		"/>
		<g>
			<path class="st9" d="M50,49c-12.7,0-23-10.3-23-23S37.3,3,50,3s23,10.3,23,23S62.7,49,50,49z"/>
			<path class="st3" d="M50,49.7c-13.1,0-23.7-10.6-23.7-23.7C26.3,12.9,36.9,2.3,50,2.3S73.7,12.9,73.7,26
				C73.7,39.1,63.1,49.7,50,49.7z M50,3.6c-12.3,0-22.4,10-22.4,22.4c0,12.3,10,22.4,22.4,22.4s22.4-10,22.4-22.4
				C72.4,13.7,62.3,3.6,50,3.6z"/>
		</g>
		<g>
			<path class="st3" d="M60.4,34.2H39.6c-0.4,0-0.8-0.3-0.8-0.8c0-0.4,0.3-0.8,0.8-0.8h19.4l-9.5-17.3c-0.2-0.4-0.1-0.8,0.3-1
				c0.4-0.2,0.8-0.1,1,0.3L61,33.1c0.1,0.2,0.1,0.5,0,0.8C60.9,34.1,60.6,34.2,60.4,34.2z"/>
			<path class="st3" d="M42.2,31.5c-0.4-0.1-0.7-0.5-0.6-0.9l0,0c0.1-0.4,0.5-0.7,0.9-0.6l0,0c0.4,0.1,0.7,0.5,0.6,0.9l0,0
				C43,31.2,42.7,31.5,42.2,31.5L42.2,31.5C42.3,31.5,42.2,31.5,42.2,31.5z M42.7,28.8c-0.4-0.1-0.6-0.6-0.5-1l0,0
				c0.1-0.4,0.5-0.6,1-0.5l0,0c0.4,0.1,0.6,0.5,0.5,1l0,0c-0.1,0.3-0.4,0.5-0.8,0.5l0,0C42.8,28.8,42.8,28.8,42.7,28.8z M43.6,26.2
				c-0.4-0.2-0.5-0.6-0.4-1l0,0c0.2-0.4,0.6-0.5,1-0.4l0,0c0.4,0.2,0.5,0.7,0.4,1l0,0c-0.2,0.3-0.4,0.4-0.7,0.4l0,0
				C43.8,26.2,43.7,26.2,43.6,26.2z M44.9,23.7c-0.3-0.2-0.4-0.7-0.2-1.1l0,0c0.2-0.3,0.7-0.4,1.1-0.2l0,0c0.3,0.2,0.4,0.7,0.2,1
				l0,0c-0.1,0.2-0.4,0.3-0.7,0.3l0,0C45.2,23.9,45,23.8,44.9,23.7z M46.5,21.5c-0.3-0.3-0.3-0.8,0-1.1l0,0c0.3-0.3,0.8-0.3,1.1,0
				l0,0c0.3,0.3,0.3,0.8,0,1.1l0,0c-0.2,0.2-0.4,0.2-0.6,0.2l0,0C46.8,21.7,46.7,21.7,46.5,21.5z M48.5,19.6
				c-0.3-0.3-0.2-0.8,0.1-1.1l0,0c0.3-0.3,0.8-0.2,1.1,0.1l0,0c0.3,0.3,0.2,0.8-0.1,1.1l0,0c-0.1,0.1-0.3,0.2-0.5,0.2l0,0
				C48.8,19.9,48.6,19.8,48.5,19.6z"/>
		</g>
	</g>
</g>
<g id="Layer_7" class="st0">
	<g class="st1">
		<polygon class="st10" points="87,33.9 13,33.9 16.5,26 13,18.1 87,18.1 83.5,26 		"/>
		<g>
			<path class="st10" d="M49.9,49c-12.7,0-23-10.3-23-23s10.3-23,23-23s23,10.3,23,23S62.6,49,49.9,49z"/>
			<path class="st3" d="M49.9,49.7c-13.1,0-23.7-10.6-23.7-23.7c0-13.1,10.6-23.7,23.7-23.7S73.6,12.9,73.6,26
				C73.6,39.1,63,49.7,49.9,49.7z M49.9,3.6c-12.3,0-22.4,10-22.4,22.4c0,12.3,10,22.4,22.4,22.4s22.4-10,22.4-22.4
				C72.3,13.7,62.3,3.6,49.9,3.6z"/>
		</g>
		<g>
			<g>
				<path class="st3" d="M60.9,34.3c-0.3,0-0.5-0.1-0.6-0.4l-6.8-14l-4.4,8.7C49,28.9,48.7,29,48.5,29c-0.3,0-0.5-0.1-0.6-0.4
					l-2.7-4.8l-5.5,10c-0.2,0.3-0.6,0.5-0.9,0.3c-0.3-0.2-0.5-0.6-0.3-0.9l6.1-11.1c0.1-0.2,0.4-0.4,0.6-0.4
					c0.3,0.1,0.5,0.1,0.6,0.4l2.7,4.8l4.5-8.8c0.1-0.2,0.4-0.4,0.6-0.4c0,0,0,0,0,0c0.3,0,0.5,0.2,0.6,0.4l7.4,15.2
					c0.2,0.3,0,0.8-0.3,0.9C61.1,34.2,61,34.3,60.9,34.3z"/>
				<g>
					<path class="st3" d="M50.9,18.3c0,0.4-0.3,0.7-0.7,0.7H40c-0.4,0-0.7-0.3-0.7-0.7s0.3-0.7,0.7-0.7h10.2
						C50.6,17.6,50.9,17.9,50.9,18.3z"/>
				</g>
			</g>
			<rect x="39.1" y="32.9" class="st3" width="21.9" height="1.4"/>
		</g>
	</g>
</g>
<g id="Layer_1_copy" class="st0">
	<g class="st1">
		<polygon class="st11" points="87,33.9 13,33.9 16.5,26 13,18.1 87,18.1 83.5,26 		"/>
		<g>
			<g>
				<path class="st11" d="M73.1,26C73.1,13.3,62.7,2.9,50,2.9S26.9,13.3,26.9,26c0,12.7,10.3,23.1,23.1,23.1S73.1,38.7,73.1,26z"/>
				<path class="st3" d="M50,49.7c-13.1,0-23.7-10.6-23.7-23.7C26.3,12.9,36.9,2.3,50,2.3c13.1,0,23.7,10.6,23.7,23.7
					C73.7,39.1,63.1,49.7,50,49.7z M50,3.6C37.6,3.6,27.6,13.6,27.6,26c0,12.4,10.1,22.4,22.4,22.4S72.4,38.4,72.4,26
					C72.4,13.6,62.4,3.6,50,3.6z"/>
			</g>
			<g>
				<path class="st3" d="M50,37.4c-5.9,0-10.8-4.8-10.8-10.8S44.1,15.8,50,15.8s10.8,4.8,10.8,10.8S55.9,37.4,50,37.4z M50,17.2
					c-5.2,0-9.4,4.2-9.4,9.4S44.8,36,50,36s9.4-4.2,9.4-9.4S55.2,17.2,50,17.2z"/>
				<path class="st3" d="M52,14.7h-4c-0.4,0-0.7-0.3-0.7-0.7c0-0.4,0.3-0.7,0.7-0.7h4c0.4,0,0.7,0.3,0.7,0.7
					C52.7,14.4,52.4,14.7,52,14.7z"/>
				<path class="st3" d="M50,27.3c-0.4,0-0.7-0.3-0.7-0.7v-6.9c0-0.4,0.3-0.7,0.7-0.7c0.4,0,0.7,0.3,0.7,0.7v6.9
					C50.7,27,50.4,27.3,50,27.3z"/>
				<path class="st3" d="M57.1,20.1c-0.2,0-0.3-0.1-0.5-0.2c-0.3-0.3-0.3-0.7,0-1l1.8-1.8c0.3-0.3,0.7-0.3,1,0c0.3,0.3,0.3,0.7,0,1
					l-1.8,1.8C57.5,20.1,57.3,20.1,57.1,20.1z"/>
			</g>
		</g>
	</g>
</g>
<g id="Layer_3_copy" class="st0">
	<g class="st1">
		<polygon class="st11" points="87,33.9 13,33.9 16.5,26 13,18.1 87,18.1 83.5,26 		"/>
		<g>
			<path class="st11" d="M73.1,26C73.1,13.3,62.7,2.9,50,2.9S26.9,13.3,26.9,26c0,12.7,10.3,23.1,23.1,23.1S73.1,38.7,73.1,26z"/>
			<path class="st3" d="M50,49.7c-13.1,0-23.7-10.6-23.7-23.7C26.3,12.9,36.9,2.3,50,2.3c13.1,0,23.7,10.6,23.7,23.7
				C73.7,39.1,63.1,49.7,50,49.7z M50,3.6C37.6,3.6,27.6,13.6,27.6,26c0,12.4,10.1,22.4,22.4,22.4S72.4,38.4,72.4,26
				C72.4,13.6,62.4,3.6,50,3.6z"/>
		</g>
		<g>
			<g>
				<path class="st3" d="M44.4,24.2c-0.2,0-0.3-0.1-0.5-0.2l-1.9-1.9c-0.3-0.3-0.3-0.7,0-0.9c0.3-0.3,0.7-0.3,0.9,0l1.9,1.9
					c0.3,0.3,0.3,0.7,0,0.9C44.7,24.1,44.6,24.2,44.4,24.2z"/>
				<path class="st3" d="M55.1,24.2c-0.2,0-0.3-0.1-0.5-0.2c-0.3-0.3-0.3-0.7,0-0.9l1.9-1.9c0.3-0.3,0.7-0.3,0.9,0
					c0.3,0.3,0.3,0.7,0,0.9L55.6,24C55.5,24.1,55.3,24.2,55.1,24.2z"/>
			</g>
			<path class="st3" d="M49.8,36.6c-8.3,0-12.6-3-12.6-9c0-6.9,5.6-12.6,12.6-12.6c6.9,0,12.6,5.6,12.6,12.6
				C62.4,33.6,58.1,36.6,49.8,36.6z M49.8,16.4c-6.2,0-11.2,5-11.2,11.2c0,5.3,3.6,7.7,11.2,7.7S61,32.9,61,27.6
				C61,21.4,56,16.4,49.8,16.4z"/>
			<path class="st3" d="M49.8,33.9c-1.8,0-3.3-1.5-3.3-3.3s1.5-3.3,3.3-3.3s3.3,1.5,3.3,3.3S51.6,33.9,49.8,33.9z M49.8,28.6
				c-1.1,0-2,0.9-2,2s0.9,2,2,2c1.1,0,2-0.9,2-2S50.9,28.6,49.8,28.6z"/>
			<path class="st3" d="M49.8,28.6c-0.4,0-0.7-0.3-0.7-0.7v-7.8c0-0.4,0.3-0.7,0.7-0.7c0.4,0,0.7,0.3,0.7,0.7V28
				C50.5,28.3,50.2,28.6,49.8,28.6z"/>
		</g>
	</g>
</g>
<g id="Layer_2_copy">
	<g>
		<polygon class="st11" points="87,33.9 13,33.9 16.5,26 13,18.1 87,18.1 83.5,26 		"/>
		<g>
			<path class="st11" d="M73.1,26C73.1,13.3,62.7,2.9,50,2.9S26.9,13.3,26.9,26c0,12.7,10.3,23.1,23.1,23.1S73.1,38.7,73.1,26z"/>
			<path class="st3" d="M50,49.7c-13.1,0-23.7-10.6-23.7-23.7C26.3,12.9,36.9,2.3,50,2.3c13.1,0,23.7,10.6,23.7,23.7
				C73.7,39.1,63.1,49.7,50,49.7z M50,3.6C37.6,3.6,27.6,13.6,27.6,26c0,12.4,10.1,22.4,22.4,22.4S72.4,38.4,72.4,26
				C72.4,13.6,62.4,3.6,50,3.6z"/>
		</g>
		<path class="st3" d="M54.6,24L54.6,24l0.4-0.4l2.4-0.1l0,0l0,0l4.4-4.4l0.1-0.1l-0.2,0l-3.2,0.1l0.2-3.1l0-0.2l-0.1,0.1l-4.4,4.4
			l0,0l0,0l-0.1,2.3l-4,4l-4.2-4.2l-0.1-2.3l0,0l0,0l-4.4-4.4l-0.1-0.1l0,0.2l0.2,3.1l-3.2-0.1l-0.2,0l0.1,0.1l4.4,4.4l0,0l0,0
			l2.4,0.1l0.4,0.4l3.7,3.7l-0.6,0.6L42.8,34l0.1-1.5c0-0.4-0.3-0.7-0.6-0.7c0,0,0,0-0.1,0c-0.3,0-0.6,0.3-0.6,0.6l-0.2,3.8l0,0.1
			l0.1,0l3.9-0.1c0.4,0,0.6-0.3,0.6-0.7c0-0.3-0.3-0.6-0.7-0.6l-1.6,0.1l6.4-6.4l6.3,6.3l-1.6-0.1c-0.4,0-0.7,0.3-0.7,0.6
			c0,0.4,0.3,0.7,0.6,0.7l3.9,0.1l0.1,0l0-0.1l-0.2-3.8c0-0.3-0.3-0.6-0.6-0.6c0,0-0.1,0-0.1,0c-0.4,0-0.6,0.3-0.6,0.7l0.1,1.5
			L51.3,28l0,0l0,0L51,27.6L54.6,24L54.6,24z M53.3,31.7l-3.2-3.2h0L53.3,31.7z M54.9,23.6l0.1-0.1l0,0L54.9,23.6z M57.4,23.4
			l-1.7,0.1L57.4,23.4l4.4-4.4h0L57.4,23.4z M59.7,19.1l-1.1,0l0,0L59.7,19.1z M54.3,20.3l4.4-4.4l0,0L54.3,20.3l-0.1,1.5L54.3,20.3
			z M50.1,26.8L50.1,26.8l-2.1-2.1L50.1,26.8L50.1,26.8z M42.6,17.1l-1.3-1.3l0,0L42.6,17.1z M41.4,16.9l0.1,2.1l-0.7,0l0.7,0
			L41.4,16.9z M38.2,18.9L38.2,18.9l4.4,4.4l1.7,0.1l-1.7-0.1L38.2,18.9z M45.5,23.8L45.5,23.8L45,23.4l0,0L45.5,23.8L45.5,23.8
			l3.8,3.8l-0.3,0.3l0.3-0.3L45.5,23.8z M48.6,28.2C48.6,28.2,48.6,28.2,48.6,28.2C48.6,28.2,48.6,28.2,48.6,28.2l-5.9,5.9l0,0
			L48.6,28.2z M42.2,31.9c0.3,0,0.6,0.3,0.6,0.6l-0.1,1.4l0.1-1.4C42.8,32.2,42.6,31.9,42.2,31.9c-0.1,0-0.1,0-0.2,0
			C42.1,31.9,42.1,31.9,42.2,31.9C42.2,31.9,42.2,31.9,42.2,31.9z M42,31.9c0,0-0.1,0-0.1,0.1C41.9,31.9,41.9,31.9,42,31.9z
			 M41.8,32c0,0-0.1,0.1-0.1,0.1C41.7,32.1,41.8,32,41.8,32z M41.6,32.4c0-0.1,0-0.1,0.1-0.2C41.6,32.3,41.6,32.3,41.6,32.4z
			 M45.8,35.7c0-0.1,0-0.1,0-0.2c0-0.1,0-0.2-0.1-0.2c0,0.1,0.1,0.1,0.1,0.2C45.9,35.6,45.9,35.6,45.8,35.7z M45.8,35.2
			c0,0-0.1-0.1-0.1-0.1C45.7,35.1,45.8,35.2,45.8,35.2z M45.4,35c0,0-0.1,0-0.1,0c0,0,0,0,0,0C45.3,35,45.4,35,45.4,35z M45.6,35.1
			c0,0-0.1-0.1-0.1-0.1C45.5,35,45.6,35,45.6,35.1z M44.9,35L43.5,35l0,0L44.9,35z M56.5,34.9L56.5,34.9l-1.8-0.1
			c-0.1,0-0.1,0-0.2,0c0.1,0,0.1,0,0.2,0L56.5,34.9z M54.2,35.4c0-0.2,0.1-0.3,0.2-0.4C54.2,35.1,54.2,35.3,54.2,35.4
			c0,0.2,0.1,0.3,0.2,0.4C54.2,35.7,54.2,35.6,54.2,35.4z M58.3,32c0,0-0.1-0.1-0.1-0.1C58.3,32,58.3,32,58.3,32z M58.4,32.3
			c0-0.1,0-0.1-0.1-0.2C58.4,32.2,58.4,32.3,58.4,32.3z M57.8,31.8C57.8,31.8,57.9,31.8,57.8,31.8c0.1,0,0.1,0,0.2,0
			C57.9,31.8,57.9,31.8,57.8,31.8c-0.2,0-0.4,0.2-0.5,0.4C57.4,31.9,57.6,31.8,57.8,31.8z M58.2,31.9c0,0-0.1-0.1-0.1-0.1
			C58.1,31.8,58.1,31.9,58.2,31.9z M57.3,34.1L57.3,34.1L51.3,28c0,0,0,0,0,0c0,0,0,0,0,0L57.3,34.1z"/>
	</g>
</g>
<g id="Layer_4_copy" class="st0">
	<g class="st1">
		<polygon class="st11" points="87,33.9 13,33.9 16.5,26 13,18.1 87,18.1 83.5,26 		"/>
		<g>
			<g>
				<path class="st11" d="M73.1,26C73.1,13.3,62.7,2.9,50,2.9S26.9,13.3,26.9,26c0,12.7,10.3,23.1,23.1,23.1S73.1,38.7,73.1,26z"/>
				<path class="st3" d="M50,49.7c-13.1,0-23.7-10.6-23.7-23.7C26.3,12.9,36.9,2.3,50,2.3c13.1,0,23.7,10.6,23.7,23.7
					C73.7,39.1,63.1,49.7,50,49.7z M50,3.6C37.6,3.6,27.6,13.6,27.6,26c0,12.4,10.1,22.4,22.4,22.4S72.4,38.4,72.4,26
					C72.4,13.6,62.4,3.6,50,3.6z"/>
			</g>
			<g>
				<path class="st3" d="M51.8,34.6c-0.1,0-0.2,0-0.3-0.1c-1.6-0.7-2.9-2.1-3.5-3.7c-0.6-1.7-0.6-3.5,0.1-5.1l0.5-1
					c0.3-0.8,0.4-1.6,0.1-2.4c-0.3-0.8-0.9-1.4-1.7-1.8c-0.3-0.1-0.5-0.5-0.3-0.8c0.1-0.3,0.5-0.5,0.8-0.3c1.1,0.5,1.9,1.4,2.3,2.5
					c0.4,1.1,0.4,2.3-0.1,3.4l-0.5,1c-0.6,1.3-0.6,2.8-0.1,4.2c0.5,1.4,1.5,2.4,2.9,3c0.3,0.1,0.5,0.5,0.3,0.8
					C52.3,34.5,52,34.6,51.8,34.6z"/>
				<path class="st3" d="M52.7,32.5c-0.1,0-0.2,0-0.3-0.1c-1.1-0.5-1.9-1.4-2.3-2.5c-0.4-1.1-0.4-2.3,0.1-3.4l0.5-1
					c0.6-1.3,0.6-2.8,0.1-4.2c-0.5-1.4-1.5-2.4-2.9-3c-0.3-0.1-0.5-0.5-0.3-0.8c0.1-0.3,0.5-0.5,0.8-0.3c1.6,0.7,2.9,2.1,3.5,3.7
					c0.6,1.7,0.6,3.5-0.1,5.1l-0.5,1c-0.3,0.8-0.4,1.6-0.1,2.4c0.3,0.8,0.9,1.4,1.7,1.8c0.3,0.1,0.5,0.5,0.3,0.8
					C53.2,32.4,53,32.5,52.7,32.5z"/>
				<path class="st3" d="M57,33.1c0.9,0,1.7,0.5,2,1.4c0.4,1.1-0.1,2.3-1.2,2.7c-0.2,0.1-0.5,0.1-0.8,0.1c-0.9,0-1.7-0.5-2-1.4
					c-0.4-1.1,0.1-2.3,1.2-2.7C56.5,33.2,56.8,33.1,57,33.1 M57,31.9c-0.4,0-0.8,0.1-1.2,0.2c-1.7,0.7-2.6,2.6-1.9,4.4
					c0.5,1.3,1.8,2.2,3.2,2.2c0.4,0,0.8-0.1,1.2-0.2c1.7-0.7,2.6-2.6,1.9-4.4C59.7,32.7,58.4,31.9,57,31.9L57,31.9z"/>
				<path class="st3" d="M43,14.6c0.9,0,1.7,0.5,2,1.4c0.4,1.1-0.1,2.3-1.2,2.7c-0.2,0.1-0.5,0.1-0.8,0.1c-0.9,0-1.7-0.5-2-1.4
					c-0.4-1.1,0.1-2.3,1.2-2.7C42.5,14.7,42.7,14.6,43,14.6 M43,13.4c-0.4,0-0.8,0.1-1.2,0.2c-1.7,0.7-2.6,2.6-1.9,4.4
					c0.5,1.3,1.8,2.2,3.2,2.2c0.4,0,0.8-0.1,1.2-0.2c1.7-0.7,2.6-2.6,1.9-4.4C45.6,14.2,44.3,13.4,43,13.4L43,13.4z"/>
			</g>
		</g>
	</g>
</g>
<g id="Layer_5_copy" class="st0">
	<polygon class="st12" points="87,33.9 13,33.9 16.5,26 13,18.1 87,18.1 83.5,26 	"/>
	<g class="st1">
		<path class="st11" d="M73.1,26C73.1,13.3,62.7,2.9,50,2.9S26.9,13.3,26.9,26c0,12.7,10.3,23.1,23.1,23.1S73.1,38.7,73.1,26z"/>
		<path class="st3" d="M50,49.7c-13.1,0-23.7-10.6-23.7-23.7C26.3,12.9,36.9,2.3,50,2.3c13.1,0,23.7,10.6,23.7,23.7
			C73.7,39.1,63.1,49.7,50,49.7z M50,3.6C37.6,3.6,27.6,13.6,27.6,26c0,12.4,10.1,22.4,22.4,22.4S72.4,38.4,72.4,26
			C72.4,13.6,62.4,3.6,50,3.6z"/>
	</g>
	<g class="st1">
		<path class="st3" d="M58.9,34.5c-0.2,0-0.5-0.1-0.6-0.4l-6.6-13.5L47.4,29c-0.1,0.2-0.3,0.4-0.6,0.4c-0.3,0-0.5-0.1-0.6-0.3
			l-2.6-4.6L38.4,34c-0.2,0.3-0.6,0.4-0.9,0.3c-0.3-0.2-0.4-0.6-0.3-0.9l5.8-10.6c0.1-0.2,0.3-0.3,0.6-0.3c0.3,0,0.5,0.1,0.6,0.3
			l2.6,4.6l4.3-8.4c0.1-0.2,0.3-0.4,0.6-0.4c0,0,0,0,0,0c0.3,0,0.5,0.1,0.6,0.4l7.2,14.7c0.2,0.3,0,0.7-0.3,0.9
			C59,34.4,58.9,34.5,58.9,34.5z"/>
		<g>
			<g>
				<g>
					<g>
						<path class="st3" d="M58.9,26.5c-0.2,0-0.4-0.1-0.5-0.2c-0.2-0.3-0.2-0.7,0-0.9l3.3-3c0.3-0.2,0.7-0.2,0.9,0
							c0.2,0.3,0.2,0.7,0,0.9l-3.3,3C59.2,26.4,59,26.5,58.9,26.5z"/>
					</g>
				</g>
			</g>
		</g>
		<path class="st3" d="M58.9,26.5c-0.4,0-0.7-0.3-0.7-0.7V15.7c0-0.4,0.3-0.7,0.7-0.7s0.7,0.3,0.7,0.7v10.2
			C59.5,26.2,59.2,26.5,58.9,26.5z"/>
		<rect x="37.9" y="33" class="st3" width="21" height="1.3"/>
	</g>
</g>
<g id="Layer_6_copy" class="st0">
	<g class="st1">
		<polygon class="st11" points="87,33.9 13,33.9 16.5,26 13,18.1 87,18.1 83.5,26 		"/>
		<g>
			<path class="st11" d="M50,49c-12.7,0-23-10.3-23-23S37.3,3,50,3s23,10.3,23,23S62.7,49,50,49z"/>
			<path class="st3" d="M50,49.7c-13.1,0-23.7-10.6-23.7-23.7C26.3,12.9,36.9,2.3,50,2.3S73.7,12.9,73.7,26
				C73.7,39.1,63.1,49.7,50,49.7z M50,3.6c-12.3,0-22.4,10-22.4,22.4c0,12.3,10,22.4,22.4,22.4s22.4-10,22.4-22.4
				C72.4,13.7,62.3,3.6,50,3.6z"/>
		</g>
		<g>
			<path class="st3" d="M60.4,34.2H39.6c-0.4,0-0.8-0.3-0.8-0.8c0-0.4,0.3-0.8,0.8-0.8h19.4l-9.5-17.3c-0.2-0.4-0.1-0.8,0.3-1
				c0.4-0.2,0.8-0.1,1,0.3L61,33.1c0.1,0.2,0.1,0.5,0,0.8C60.9,34.1,60.6,34.2,60.4,34.2z"/>
			<path class="st3" d="M42.2,31.5c-0.4-0.1-0.7-0.5-0.6-0.9l0,0c0.1-0.4,0.5-0.7,0.9-0.6l0,0c0.4,0.1,0.7,0.5,0.6,0.9l0,0
				C43,31.2,42.7,31.5,42.2,31.5L42.2,31.5C42.3,31.5,42.2,31.5,42.2,31.5z M42.7,28.8c-0.4-0.1-0.6-0.6-0.5-1l0,0
				c0.1-0.4,0.5-0.6,1-0.5l0,0c0.4,0.1,0.6,0.5,0.5,1l0,0c-0.1,0.3-0.4,0.5-0.8,0.5l0,0C42.8,28.8,42.8,28.8,42.7,28.8z M43.6,26.2
				c-0.4-0.2-0.5-0.6-0.4-1l0,0c0.2-0.4,0.6-0.5,1-0.4l0,0c0.4,0.2,0.5,0.7,0.4,1l0,0c-0.2,0.3-0.4,0.4-0.7,0.4l0,0
				C43.8,26.2,43.7,26.2,43.6,26.2z M44.9,23.7c-0.3-0.2-0.4-0.7-0.2-1.1l0,0c0.2-0.3,0.7-0.4,1.1-0.2l0,0c0.3,0.2,0.4,0.7,0.2,1
				l0,0c-0.1,0.2-0.4,0.3-0.7,0.3l0,0C45.2,23.9,45,23.8,44.9,23.7z M46.5,21.5c-0.3-0.3-0.3-0.8,0-1.1l0,0c0.3-0.3,0.8-0.3,1.1,0
				l0,0c0.3,0.3,0.3,0.8,0,1.1l0,0c-0.2,0.2-0.4,0.2-0.6,0.2l0,0C46.8,21.7,46.7,21.7,46.5,21.5z M48.5,19.6
				c-0.3-0.3-0.2-0.8,0.1-1.1l0,0c0.3-0.3,0.8-0.2,1.1,0.1l0,0c0.3,0.3,0.2,0.8-0.1,1.1l0,0c-0.1,0.1-0.3,0.2-0.5,0.2l0,0
				C48.8,19.9,48.6,19.8,48.5,19.6z"/>
		</g>
	</g>
</g>
<g id="Layer_7_copy" class="st0">
	<g class="st1">
		<polygon class="st11" points="87,33.9 13,33.9 16.5,26 13,18.1 87,18.1 83.5,26 		"/>
		<g>
			<path class="st11" d="M49.9,49c-12.7,0-23-10.3-23-23s10.3-23,23-23s23,10.3,23,23S62.6,49,49.9,49z"/>
			<path class="st3" d="M49.9,49.7c-13.1,0-23.7-10.6-23.7-23.7c0-13.1,10.6-23.7,23.7-23.7S73.6,12.9,73.6,26
				C73.6,39.1,63,49.7,49.9,49.7z M49.9,3.6c-12.3,0-22.4,10-22.4,22.4c0,12.3,10,22.4,22.4,22.4s22.4-10,22.4-22.4
				C72.3,13.7,62.3,3.6,49.9,3.6z"/>
		</g>
		<g>
			<g>
				<path class="st3" d="M60.9,34.3c-0.3,0-0.5-0.1-0.6-0.4l-6.8-14l-4.4,8.7C49,28.9,48.7,29,48.5,29c-0.3,0-0.5-0.1-0.6-0.4
					l-2.7-4.8l-5.5,10c-0.2,0.3-0.6,0.5-0.9,0.3c-0.3-0.2-0.5-0.6-0.3-0.9l6.1-11.1c0.1-0.2,0.4-0.4,0.6-0.4
					c0.3,0.1,0.5,0.1,0.6,0.4l2.7,4.8l4.5-8.8c0.1-0.2,0.4-0.4,0.6-0.4c0,0,0,0,0,0c0.3,0,0.5,0.2,0.6,0.4l7.4,15.2
					c0.2,0.3,0,0.8-0.3,0.9C61.1,34.2,61,34.3,60.9,34.3z"/>
				<g>
					<path class="st3" d="M50.9,18.3c0,0.4-0.3,0.7-0.7,0.7H40c-0.4,0-0.7-0.3-0.7-0.7s0.3-0.7,0.7-0.7h10.2
						C50.6,17.6,50.9,17.9,50.9,18.3z"/>
				</g>
			</g>
			<rect x="39.1" y="32.9" class="st3" width="21.9" height="1.4"/>
		</g>
	</g>
</g>
<g id="Layer_15" class="st0">
</g>
</svg>
